<?xml version="1.0" encoding="iso-8859-1"?>
<!-- Generator: Adobe Illustrator 19.0.0, SVG Export Plug-In . SVG Version: 6.00 Build 0)  -->
<svg version="1.1" fill='#9d88da' id="Layer_1" xmlns="http://www.w3.org/2000/svg" xmlns:xlink="http://www.w3.org/1999/xlink" x="0px" y="0px"
viewBox="0 0 512 512" style="enable-background:new 0 0 512 512;" xml:space="preserve">
<g>
	<g>
		<g>
			<rect x="28.354" y="195.19" width="15.513" height="290.57"/>
			<rect x="468.137" y="195.19" width="15.513" height="290.57"/>
			<rect x="248.242" y="85.238" width="15.513" height="47.12"/>
			<polygon points="208.784,80.303 256,26.342 303.216,80.303 303.216,155.824 512,155.824 472.831,77.486 326.679,77.486 
				326.679,92.998 463.244,92.998 486.901,140.311 318.728,140.311 318.728,74.475 256,2.785 193.271,74.475 193.271,140.311 
				25.1,140.311 48.757,92.998 185.321,92.998 185.321,77.486 39.169,77.486 0,155.824 208.784,155.824 			"/>
			<polygon points="491.5,163.774 475.987,163.774 475.987,171.724 36.013,171.724 36.013,163.774 20.5,163.774 20.5,187.237 
				491.5,187.237 			"/>
			<rect x="185.323" y="493.703" width="141.36" height="15.513"/>
			<rect x="334.533" y="493.703" width="172.768" height="15.513"/>
			<rect x="4.697" y="493.703" width="172.768" height="15.513"/>
			<rect x="201.032" y="470.145" width="109.942" height="15.513"/>
			<polygon points="295.169,438.637 295.169,265.963 216.831,265.963 216.831,438.637 232.343,438.637 232.343,281.475 
				279.657,281.475 279.657,438.637 			"/>
			<path d="M122.398,438.539V210.99H67.62v227.549H122.398z M83.133,226.503h23.754v133.698H83.133V226.503z M83.133,375.714h23.754
				v47.313H83.133V375.714z"/>
			<path d="M193.077,438.539V210.99h-54.778v227.549H193.077z M153.812,226.503h23.754v70.873h-23.754V226.503z M153.812,312.888
				h23.754v110.139h-23.754V312.888z"/>
			<path d="M373.701,438.539V210.99h-54.779v227.549H373.701z M334.435,226.503h23.754v23.754h-23.754V226.503z M334.435,265.769
				h23.754v157.259h-23.754V265.769z"/>
			<path d="M444.38,438.539V210.99h-54.779v227.549H444.38z M405.114,226.503h23.754v133.698h-23.754V226.503z M405.114,375.714
				h23.754v47.313h-23.754V375.714z"/>
			<rect x="240.392" y="367.958" width="15.513" height="15.707"/>
			<rect x="216.731" y="446.586" width="78.533" height="15.513"/>
		</g>
	</g>
</g>
<g>
</g>
<g>
</g>
<g>
</g>
<g>
</g>
<g>
</g>
<g>
</g>
<g>
</g>
<g>
</g>
<g>
</g>
<g>
</g>
<g>
</g>
<g>
</g>
<g>
</g>
<g>
</g>
<g>
</g>
</svg>
