<?xml version="1.0" encoding="iso-8859-1"?>
<!-- Generator: Adobe Illustrator 19.0.0, SVG Export Plug-In . SVG Version: 6.00 Build 0)  -->
<svg version="1.1" color="#9d88da" id="Layer_1" xmlns="http://www.w3.org/2000/svg" xmlns:xlink="http://www.w3.org/1999/xlink" x="0px" y="0px"
	 viewBox="0 0 512.001 512.001" style="enable-background:new 0 0 512.001 512.001;" xml:space="preserve">
<g>
	<g>
		<g>
			<path d="M136.122,247.761h103.717v-55.702H136.122V247.761z M151.811,207.749h72.338v24.323h-72.338V207.749z"/>
			<path d="M375.88,192.059H272.163v55.702H375.88V192.059z M360.191,232.071h-72.338v-24.323h72.338V232.071z"/>
			<rect x="167.973" y="168.055" width="72.022" height="15.69"/>
			<rect x="272.004" y="168.055" width="72.022" height="15.69"/>
			<rect x="247.999" y="208.063" width="16.004" height="15.689"/>
			<polygon points="231.836,272.084 231.836,263.923 216.147,263.923 216.147,287.773 232.151,287.773 232.151,303.779 
				279.851,303.779 279.851,287.773 295.855,287.773 295.855,263.923 280.166,263.923 280.166,272.084 264.162,272.084 
				264.162,288.089 247.84,288.089 247.84,272.084 			"/>
			<rect x="136.123" y="151.885" width="15.689" height="32.01"/>
			<rect x="360.19" y="151.885" width="15.689" height="32.01"/>
			<path d="M415.893,215.908c0-17.563-14.289-31.852-31.852-31.852v15.69c8.913,0,16.162,7.251,16.162,16.162
				c0,8.913-7.251,16.163-16.162,16.163v15.689C401.604,247.761,415.893,233.472,415.893,215.908z"/>
			<path d="M127.961,247.761v-15.689c-8.913,0-16.162-7.251-16.162-16.163c0-8.912,7.251-16.162,16.162-16.162v-15.69
				c-17.563,0-31.852,14.289-31.852,31.852S110.399,247.761,127.961,247.761z"/>
			<rect x="215.993" y="328.098" width="80.027" height="15.689"/>
			<path d="M344.028,440.135h-16.163v-16.32h0.788c26.041,0,47.227-21.186,47.227-47.227V255.922h-15.69v120.667
				c0,17.39-14.148,31.538-31.538,31.538h-64.808v-32.168h-15.689v32.168h-64.807c-17.39,0-31.538-14.148-31.538-31.538V255.922
				h-15.69v120.667c0,26.041,21.186,47.227,47.227,47.227h0.788v16.32h-16.163c-39.626,0-71.864,32.239-71.864,71.865h15.69
				c0-30.975,25.199-56.176,56.175-56.176h22.586l57.597,21.599V512h15.689v-34.576l57.597-21.599h22.586
				c30.975,0,56.175,25.2,56.175,56.176h15.689C415.893,472.374,383.655,440.135,344.028,440.135z M312.176,440.135h-0.158v2.467
				L256,463.608l-56.017-21.006v-2.467h-0.158v-16.32h112.35V440.135z"/>
			<rect x="272.004" y="496.154" width="16.005" height="15.69"/>
			<path d="M165.884,143.729h209.997V61.772C375.88,27.711,348.169,0,314.109,0H104.111v81.958
				C104.111,116.018,131.823,143.729,165.884,143.729z M119.802,15.689h194.307c25.41,0,46.082,20.672,46.082,46.082v66.268H165.884
				c-25.41,0-46.082-20.672-46.082-46.082V15.689z"/>
		</g>
	</g>
</g>
<g>
</g>
<g>
</g>
<g>
</g>
<g>
</g>
<g>
</g>
<g>
</g>
<g>
</g>
<g>
</g>
<g>
</g>
<g>
</g>
<g>
</g>
<g>
</g>
<g>
</g>
<g>
</g>
<g>
</g>
</svg>
